<svg xmlns="http://www.w3.org/2000/svg" viewBox="0 0 100 100" width="100" height="100">
  <defs>
    <radialGradient id="appleGrad" cx="50%" cy="30%" r="70%">
      <stop offset="0%" style="stop-color:#ff6b6b;stop-opacity:1" />
      <stop offset="70%" style="stop-color:#ee5a5a;stop-opacity:1" />
      <stop offset="100%" style="stop-color:#c44c4c;stop-opacity:1" />
    </radialGradient>
    <linearGradient id="leafGrad" x1="0%" y1="0%" x2="100%" y2="100%">
      <stop offset="0%" style="stop-color:#51cf66;stop-opacity:1" />
      <stop offset="100%" style="stop-color:#37b24d;stop-opacity:1" />
    </linearGradient>
  </defs>
  
  <!-- Apple body -->
  <path d="M50 15 C30 15 20 30 20 45 C20 65 35 85 50 85 C65 85 80 65 80 45 C80 30 70 15 50 15 Z" fill="url(#appleGrad)" stroke="#c44c4c" stroke-width="1"/>
  
  <!-- Apple indent at top -->
  <path d="M45 15 C45 12 47 10 50 10 C53 10 55 12 55 15" fill="none" stroke="#c44c4c" stroke-width="2"/>
  
  <!-- Leaf -->
  <ellipse cx="52" cy="12" rx="8" ry="4" fill="url(#leafGrad)" transform="rotate(20 52 12)"/>
  
  <!-- Highlight -->
  <ellipse cx="42" cy="30" rx="8" ry="15" fill="#ff9999" opacity="0.6"/>
</svg>
