<svg xmlns="http://www.w3.org/2000/svg" viewBox="0 0 100 100" width="100" height="100">
  <defs>
    <radialGradient id="cakeBase" cx="50%" cy="70%" r="60%">
      <stop offset="0%" style="stop-color:#ffd43b;stop-opacity:1" />
      <stop offset="100%" style="stop-color:#fab005;stop-opacity:1" />
    </radialGradient>
    <linearGradient id="frosting" x1="0%" y1="0%" x2="100%" y2="0%">
      <stop offset="0%" style="stop-color:#ff8cc8;stop-opacity:1" />
      <stop offset="50%" style="stop-color:#faa2c1;stop-opacity:1" />
      <stop offset="100%" style="stop-color:#ff8cc8;stop-opacity:1" />
    </linearGradient>
    <radialGradient id="cherry" cx="50%" cy="30%" r="70%">
      <stop offset="0%" style="stop-color:#ff6b6b;stop-opacity:1" />
      <stop offset="100%" style="stop-color:#c92a2a;stop-opacity:1" />
    </radialGradient>
  </defs>
  
  <!-- Cake base -->
  <ellipse cx="50" cy="75" rx="35" ry="8" fill="#d4a574"/>
  <rect x="15" y="45" width="70" height="30" fill="url(#cakeBase)" rx="2"/>
  
  <!-- Frosting layers -->
  <rect x="15" y="35" width="70" height="15" fill="url(#frosting)" rx="8"/>
  <rect x="18" y="32" width="64" height="8" fill="#fcc2d7" rx="4"/>
  
  <!-- Decorative frosting dots -->
  <circle cx="25" cy="40" r="2" fill="#ff8cc8"/>
  <circle cx="35" cy="38" r="2" fill="#ff8cc8"/>
  <circle cx="45" cy="40" r="2" fill="#ff8cc8"/>
  <circle cx="55" cy="38" r="2" fill="#ff8cc8"/>
  <circle cx="65" cy="40" r="2" fill="#ff8cc8"/>
  <circle cx="75" cy="38" r="2" fill="#ff8cc8"/>
  
  <!-- Candle -->
  <rect x="48" y="15" width="4" height="25" fill="#fff3bf"/>
  <ellipse cx="50" cy="12" rx="3" ry="4" fill="#ffd43b"/>
  
  <!-- Flame -->
  <ellipse cx="50" cy="8" rx="2" ry="5" fill="#ff922b"/>
  <ellipse cx="50" cy="6" rx="1" ry="3" fill="#fd7e14"/>
  
  <!-- Cherry on top -->
  <circle cx="35" cy="32" r="3" fill="url(#cherry)"/>
  <path d="M35 29 Q 37 27 39 29" stroke="#51cf66" stroke-width="1" fill="none"/>
</svg>
